<?xml version="1.0" standalone="no"?>
<!DOCTYPE svg PUBLIC "-//W3C//DTD SVG 20010904//EN"
 "http://www.w3.org/TR/2001/REC-SVG-20010904/DTD/svg10.dtd">
<svg version="1.0" xmlns="http://www.w3.org/2000/svg"
 width="820.000000pt" height="754.000000pt" viewBox="0 0 820.000000 754.000000"
 preserveAspectRatio="xMidYMid meet">
<metadata>
Created by potrace 1.16, written by Peter Selinger 2001-2019
</metadata>
<g transform="translate(0.000000,754.000000) scale(0.100000,-0.100000)"
fill="#48D683" stroke="none">
<path d="M4784 7131 c-12 -5 -31 -22 -44 -38 -75 -94 -745 -1264 -889 -1552
-28 -55 -51 -111 -51 -123 0 -32 102 -126 187 -172 40 -21 82 -49 93 -61 l21
-23 -22 -43 c-49 -98 -786 -1369 -803 -1387 -10 -10 -273 135 -611 336 -555
331 -716 387 -1100 387 -169 -1 -202 -4 -301 -27 -443 -105 -811 -394 -1008
-793 -121 -247 -151 -377 -150 -660 1 -277 31 -416 138 -640 120 -248 295
-437 586 -632 118 -79 393 -242 815 -483 215 -122 512 -293 660 -380 955 -556
1079 -615 1389 -656 548 -73 1110 189 1420 660 52 79 202 327 445 736 67 113
138 227 159 254 44 58 42 55 76 129 51 111 501 902 789 1386 100 167 159 257
175 264 20 9 41 2 147 -53 124 -64 162 -73 204 -50 57 30 580 888 874 1435
116 214 126 243 107 298 -14 40 -23 47 -225 168 -589 354 -2746 1604 -2913
1688 -67 34 -134 46 -168 32z m1163 -942 c565 -325 1101 -634 1191 -685 89
-52 237 -137 330 -190 92 -53 193 -112 225 -131 l58 -35 -37 -66 c-200 -362
-632 -1115 -676 -1179 -16 -24 -37 -43 -47 -43 -10 0 -67 30 -127 66 -573 350
-2374 1389 -2513 1450 -31 14 -89 45 -129 70 l-73 46 19 31 c11 18 107 185
214 372 305 531 516 885 529 885 4 0 470 -266 1036 -591z m-1269 -1351 c252
-141 1476 -843 1700 -974 67 -40 82 -53 82 -73 0 -37 -98 -215 -467 -851 -187
-322 -355 -613 -374 -647 -27 -49 -39 -63 -58 -63 -13 0 -85 29 -161 65 -328
155 -594 220 -941 232 -412 14 -767 -72 -1159 -279 -213 -113 -354 -221 -535
-409 -160 -168 -257 -302 -395 -551 -24 -43 -52 -80 -62 -84 -12 -3 -87 34
-224 111 -393 222 -1103 634 -1166 676 -85 57 -263 238 -321 326 -144 220
-200 403 -200 648 0 478 226 848 652 1068 227 117 409 148 699 117 208 -23
275 -54 847 -390 580 -341 705 -400 798 -376 36 9 168 220 522 836 227 396
457 780 467 780 5 0 138 -73 296 -162z m-93 -2618 c248 -24 407 -68 688 -193
153 -68 157 -70 144 -91 -8 -11 -100 -170 -204 -351 -105 -182 -221 -380 -258
-440 -213 -347 -416 -526 -700 -619 -220 -71 -485 -74 -715 -8 -157 46 -270
103 -712 359 -249 144 -244 140 -229 184 30 92 211 379 315 501 253 296 724
567 1106 637 159 29 385 38 565 21z"/>
</g>
</svg>
