<?xml version="1.0" standalone="no"?>
<!DOCTYPE svg PUBLIC "-//W3C//DTD SVG 20010904//EN"
 "http://www.w3.org/TR/2001/REC-SVG-20010904/DTD/svg10.dtd">
<svg version="1.0" xmlns="http://www.w3.org/2000/svg"
 width="225.000000pt" height="225.000000pt" viewBox="0 0 225.000000 225.000000"
 preserveAspectRatio="xMidYMid meet">

<g transform="translate(0.000000,225.000000) scale(0.100000,-0.100000)"
stroke="none">
<path fill="#F4D414" d="M942 2133 c-34 -30 -571 -1008 -603 -1100 -41 -114 -42 -269 -3 -385
49 -148 183 -271 418 -384 225 -108 445 -164 643 -164 134 0 205 14 301 61
214 104 307 373 202 585 -39 79 -75 110 -245 209 -170 99 -167 96 -167 126 0
14 77 166 171 338 179 327 190 356 152 397 -10 12 -122 62 -247 114 -126 51
-298 121 -383 156 -162 67 -205 75 -239 47z m92 -66 c16 -11 13 -20 -34 -110
-28 -53 -53 -97 -54 -97 -10 0 -66 23 -66 27 0 2 24 47 53 99 52 95 67 106
101 81z m109 -47 c6 -6 -72 -170 -98 -208 -6 -7 -55 23 -53 32 2 6 25 53 52
104 43 80 52 91 70 86 12 -3 25 -10 29 -14z m101 -40 c10 -10 -94 -210 -110
-210 -5 0 -18 6 -29 13 -17 13 -15 19 36 115 46 87 57 101 74 96 11 -4 24 -10
29 -14z m79 -31 c12 -7 23 -13 25 -14 4 -4 -26 -64 -75 -152 -32 -59 -35 -61
-59 -51 -13 6 -24 15 -24 20 0 10 103 208 108 208 2 0 13 -5 25 -11z m127 -60
c0 -10 -98 -191 -110 -203 -6 -6 -19 -5 -35 2 l-26 12 52 97 c68 127 65 124
95 111 13 -6 24 -15 24 -19z m100 -41 c0 -8 -105 -207 -114 -216 -4 -3 -43 14
-54 24 -4 2 34 73 95 181 22 39 25 42 48 31 14 -6 25 -15 25 -20z m100 -42
c-1 -6 -27 -59 -58 -117 l-57 -107 -28 14 c-31 17 -31 17 -13 47 7 12 34 61
60 109 45 84 47 87 71 76 14 -6 25 -16 25 -22z m-433 -157 c203 -93 372 -174
376 -178 4 -4 -30 -78 -78 -163 -105 -191 -111 -208 -96 -258 13 -43 43 -71
122 -114 l54 -29 -67 -21 c-165 -54 -302 -209 -339 -383 -14 -71 -7 -201 15
-262 9 -24 14 -46 11 -49 -8 -8 -148 27 -245 60 -104 37 -231 95 -311 143
l-60 37 31 34 c35 40 70 106 96 184 28 83 26 256 -4 330 -30 75 -100 153 -167
186 -30 14 -55 28 -55 30 0 3 252 464 312 572 17 28 32 52 34 52 2 0 169 -77
371 -171z m528 128 c17 -13 15 -20 -41 -125 -60 -114 -72 -125 -109 -99 -17
13 -15 20 41 125 60 114 72 125 109 99z m-1199 -657 c90 -51 148 -148 160
-268 11 -111 -45 -288 -111 -352 -33 -32 -33 -32 -61 -14 -47 31 -112 131
-135 206 -18 58 -21 88 -17 173 4 96 7 109 48 194 24 50 48 91 54 91 6 0 34
-13 62 -30z m1186 -297 c105 -69 143 -151 136 -287 -6 -108 -38 -175 -118
-249 -62 -57 -129 -90 -224 -108 -58 -11 -226 -12 -243 -1 -16 10 -50 117 -58
182 -28 235 184 496 405 499 36 1 57 -7 102 -36z"/>
</g>
</svg>
