<?xml version="1.0" standalone="no"?>
<!DOCTYPE svg PUBLIC "-//W3C//DTD SVG 20010904//EN"
 "http://www.w3.org/TR/2001/REC-SVG-20010904/DTD/svg10.dtd">
<svg version="1.0" xmlns="http://www.w3.org/2000/svg"
 width="100.000000pt" height="100.000000pt" viewBox="0 0 100.000000 100.000000"
 preserveAspectRatio="xMidYMid meet">

<g transform="translate(0.000000,100.000000) scale(0.100000,-0.100000)"
stroke="none">
<path fill="#F42E14" d="M308 940 c-27 -3 -53 -11 -59 -17 -11 -11 -47 -134 -81 -278 -14 -62
-21 -122 -21 -190 l1 -100 48 -43 c27 -23 85 -61 129 -83 44 -23 118 -67 165
-99 119 -80 146 -92 202 -92 66 1 106 26 137 86 32 62 33 129 3 177 -11 19
-68 70 -126 114 -57 44 -113 94 -125 111 -34 50 -46 134 -33 229 18 121 16
152 -9 160 -47 15 -187 30 -231 25z m-34 -67 c-3 -21 -11 -42 -17 -48 -6 -7
-8 1 -3 24 3 18 6 40 6 47 0 8 5 14 10 14 7 0 8 -14 4 -37z m45 -5 c-11 -40
-29 -60 -29 -32 0 34 12 64 25 64 10 0 11 -8 4 -32z m51 25 c0 -16 -25 -73
-32 -73 -10 0 -10 8 -2 49 4 17 13 31 20 31 8 0 14 -3 14 -7z m40 -7 c0 -24
-22 -76 -32 -76 -5 0 -7 8 -4 18 3 9 8 29 12 45 6 28 24 38 24 13z m35 -33
c-8 -45 -13 -55 -25 -48 -11 7 10 85 22 85 6 0 7 -15 3 -37z m40 -10 c-7 -42
-12 -50 -21 -40 -10 10 6 77 18 77 6 0 8 -13 3 -37z m31 -19 c-4 -20 -10 -34
-13 -30 -3 3 -2 21 1 42 4 20 10 34 13 30 3 -3 2 -21 -1 -42z m-161 -34 c156
-17 142 -7 141 -108 -1 -114 18 -164 87 -228 29 -27 66 -58 81 -69 l29 -21
-40 -66 c-22 -36 -48 -88 -58 -114 -10 -27 -19 -51 -21 -52 -1 -2 -40 21 -86
51 -46 30 -103 64 -126 76 -42 22 -43 23 -26 42 9 10 19 41 22 69 4 48 3 51
-40 95 -39 39 -51 45 -86 45 -22 0 -43 4 -46 9 -6 8 17 141 33 196 5 17 12 42
15 58 7 31 2 30 121 17z m-53 -340 c15 -16 31 -42 34 -56 9 -35 -22 -94 -48
-94 -28 0 -76 27 -88 49 -12 23 -14 124 -2 135 15 16 77 -4 104 -34z m468
-148 c48 -46 52 -84 18 -152 -19 -38 -30 -47 -67 -57 -35 -10 -49 -10 -77 2
-19 8 -34 19 -34 24 0 35 94 221 112 221 4 0 25 -17 48 -38z"/>
</g>
</svg>
