<?xml version="1.0" standalone="no"?>
<!DOCTYPE svg PUBLIC "-//W3C//DTD SVG 20010904//EN"
 "http://www.w3.org/TR/2001/REC-SVG-20010904/DTD/svg10.dtd">
<svg version="1.0" xmlns="http://www.w3.org/2000/svg"
 width="200.000000pt" height="200.000000pt" viewBox="0 0 200.000000 200.000000"
 preserveAspectRatio="xMidYMid meet">

<g transform="translate(0.000000,200.000000) scale(0.100000,-0.100000)"
 stroke="none">
<path fill="#8058E6" d="M523 1699 c-44 -22 -83 -82 -83 -129 0 -38 37 -104 69 -123 l30 -17
3 -308 3 -307 27 -55 c33 -67 76 -109 288 -284 206 -170 245 -190 360 -190 66
0 96 5 132 21 66 30 143 105 175 172 24 48 28 68 27 141 -1 141 -32 189 -225
351 l-109 92 0 181 1 181 39 18 c41 19 80 81 80 127 0 48 -39 108 -84 129 -53
26 -81 26 -129 2 -36 -18 -38 -18 -74 0 -21 10 -49 19 -63 19 -14 0 -42 -9
-63 -19 -36 -18 -38 -18 -74 0 -21 10 -49 19 -63 19 -14 0 -42 -9 -63 -19 -36
-18 -38 -18 -74 0 -48 24 -78 24 -130 -2z m135 -19 c32 -20 32 -20 65 0 41 25
93 25 135 0 32 -20 32 -20 65 0 41 25 93 25 135 0 32 -20 32 -20 65 0 85 52
197 -10 197 -110 0 -100 -112 -162 -197 -110 -33 20 -33 20 -65 0 -42 -25 -94
-25 -135 0 -33 20 -33 20 -65 0 -42 -25 -94 -25 -135 0 -33 20 -33 20 -65 0
-62 -38 -141 -18 -178 43 -70 115 63 247 178 177z m52 -651 c92 -39 156 -134
167 -247 3 -31 10 -59 14 -62 13 -9 -1 -49 -15 -44 -17 7 -41 -47 -25 -56 6
-4 8 -13 5 -19 -4 -6 -12 -9 -17 -5 -5 3 -16 0 -24 -6 -12 -10 -27 -1 -82 46
-125 105 -144 145 -151 308 l-5 119 43 -7 c24 -4 64 -16 90 -27z"/>
<path fill="#f0f0f0" d="M529 1631 c-28 -28 -40 -71 -19 -71 6 0 10 8 10 18 0 41 86 83 105
52 3 -5 14 -10 23 -10 14 1 13 4 -7 20 -34 29 -77 26 -112 -9z"/>
<path fill="#fff000" d="M1139 1640 c-20 -16 -21 -19 -7 -20 9 0 20 5 23 10 3 6 19 10 34 10
34 0 71 -37 71 -71 0 -28 -37 -69 -63 -69 -9 0 -17 -4 -17 -10 0 -21 43 -9 71
19 20 20 29 39 29 61 0 42 -47 90 -88 90 -16 0 -40 -9 -53 -20z"/>
<path fill="#f0f0f0" d="M650 1525 c-10 -12 -6 -13 24 -8 26 4 41 0 62 -16 33 -26 75 -27 105
-1 20 16 21 19 7 20 -9 0 -20 -4 -23 -10 -10 -17 -58 -11 -85 10 -30 23 -73
26 -90 5z"/>
<path fill="#fff000" d="M880 1530 c0 -5 6 -10 14 -10 8 0 23 -3 33 -7 16 -6 16 -5 4 10 -15
18 -51 23 -51 7z"/>
<path fill="#fff000" d="M1052 1528 c-8 -10 0 -13 38 -13 38 0 46 3 38 13 -6 6 -23 12 -38 12
-15 0 -32 -6 -38 -12z"/>
</g>
</svg>
