<?xml version="1.0" standalone="no"?>
<!DOCTYPE svg PUBLIC "-//W3C//DTD SVG 20010904//EN"
 "http://www.w3.org/TR/2001/REC-SVG-20010904/DTD/svg10.dtd">
<svg version="1.0" xmlns="http://www.w3.org/2000/svg"
 width="449.000000pt" height="124.000000pt" viewBox="0 0 449.000000 124.000000"
 preserveAspectRatio="xMidYMid meet">

<g transform="translate(0.000000,124.000000) scale(0.100000,-0.100000)"
fill="#f2f2f2" stroke="none">
<path d="M2751 1115 c-2 -129 -2 -130 -34 -172 -18 -23 -42 -55 -54 -70 l-21
-29 44 -69 c29 -44 43 -77 40 -90 -3 -11 -8 -148 -11 -305 -7 -268 -8 -287
-29 -317 -27 -43 -56 -44 -56 -3 0 27 -3 30 -30 30 l-30 0 0 125 0 125 -60 0
-60 0 0 -31 c0 -26 -3 -29 -21 -24 -36 12 -59 -20 -59 -82 l0 -53 -40 0 -39 0
-3 -57 c-3 -57 -3 -57 -38 -64 -19 -4 -37 -4 -40 1 -3 5 -16 111 -29 237 -13
125 -29 237 -36 248 -7 11 -32 42 -56 69 l-44 48 -56 -63 -56 -64 -17 -185
c-24 -253 -21 -240 -66 -240 l-37 0 -6 103 c-3 56 -4 150 -3 209 4 118 -7 155
-38 129 -14 -12 -16 -41 -16 -205 0 -105 -3 -201 -6 -214 -9 -33 -24 -27 -24
12 0 27 -9 42 -48 78 -65 61 -83 65 -135 35 -63 -38 -91 -72 -91 -112 0 -19
-3 -35 -7 -35 -10 0 -19 27 -19 55 0 14 -7 25 -20 28 -19 5 -20 13 -18 172 1
135 -2 169 -14 181 -30 30 -40 -6 -40 -135 0 -94 -3 -121 -14 -125 -9 -3 -14
-20 -14 -43 l0 -38 -91 90 c-126 125 -186 203 -198 256 -6 24 -11 83 -11 131
0 48 -4 90 -10 93 -13 8 -13 -166 1 -225 13 -57 64 -125 202 -267 61 -62 108
-116 105 -118 -7 -8 -236 231 -272 284 -39 56 -56 127 -56 234 l0 88 -47 -3
-48 -3 -5 -115 c-5 -103 -9 -121 -35 -169 -17 -31 -85 -113 -155 -185 -144
-151 -185 -183 -60 -47 147 159 200 221 217 254 13 25 18 61 19 157 2 112 1
117 -6 49 -17 -172 -20 -186 -53 -232 -18 -24 -100 -115 -183 -200 l-152 -156
-6 42 c-3 23 -6 87 -7 142 -2 125 -21 180 -67 190 -17 3 -36 12 -42 20 -23 27
-66 28 -117 1 -26 -14 -54 -26 -61 -26 -27 0 -49 -81 -51 -180 0 -52 -4 -124
-7 -159 l-7 -63 -48 -20 c-27 -12 -49 -25 -49 -29 0 -5 198 -9 440 -9 433 0
441 0 430 19 -5 11 -10 60 -10 110 0 55 -4 91 -10 91 -12 0 -4 70 12 113 20
51 74 63 106 22 23 -29 39 -120 24 -138 -6 -7 -12 -58 -14 -115 l-3 -102 918
0 918 0 -6 248 c-3 136 -7 297 -10 357 l-5 110 44 65 44 65 -26 35 c-14 19
-30 37 -34 38 -4 2 -8 9 -8 16 0 7 -9 21 -20 31 -17 16 -20 32 -21 119 -2 158
-16 182 -18 31z m-1806 -601 c8 -9 24 -33 35 -53 21 -41 71 -213 65 -220 -3
-2 -6 2 -9 10 -2 8 -16 53 -30 100 -27 90 -62 154 -85 154 -25 0 -53 -52 -87
-161 -36 -119 -46 -123 -14 -5 28 101 76 191 101 191 4 0 15 -7 24 -16z m1050
-294 c-5 -112 -11 -180 -18 -180 -10 0 -1 345 10 363 13 22 15 -14 8 -183z
m118 68 c10 -171 9 -248 -3 -248 -6 0 -10 33 -10 78 0 44 -3 127 -7 185 -4 69
-2 107 4 107 6 0 13 -52 16 -122z m-323 102 c0 -5 -4 -10 -10 -10 -5 0 -10 5
-10 10 0 6 5 10 10 10 6 0 10 -4 10 -10z m270 -93 c0 -57 3 -139 7 -181 l6
-78 -24 4 c-15 2 -24 9 -23 21 0 9 1 89 2 177 2 135 4 160 17 160 12 0 15 -18
15 -103z m-1928 -172 l-9 -70 -2 91 c0 50 2 107 7 125 6 31 7 30 10 -21 1 -30
-1 -86 -6 -125z m42 29 c-4 -58 -11 -104 -17 -104 -6 0 -8 30 -4 83 4 45 7
102 8 127 0 39 2 42 10 21 5 -14 7 -67 3 -127z m84 136 c9 0 12 -27 12 -102
l0 -103 -36 -18 c-19 -9 -39 -15 -43 -13 -8 5 -3 209 5 235 3 8 12 11 27 7 12
-3 28 -6 35 -6z m110 -104 c3 -138 3 -141 -42 -118 l-36 17 0 102 c0 97 1 102
23 106 51 10 52 9 55 -107z m37 -13 c4 -76 3 -123 -3 -123 -11 0 -25 189 -16
225 3 14 8 25 9 23 1 -2 6 -58 10 -125z m33 -33 c-1 -78 -1 -81 -8 -35 -5 28
-8 84 -8 125 0 66 1 70 9 35 4 -22 8 -78 7 -125z"/>
<path d="M765 728 c-3 -8 -4 -79 -3 -158 l3 -145 30 44 c29 43 30 49 30 155
l0 111 -28 3 c-16 2 -29 -2 -32 -10z"/>
<path d="M1014 725 c-4 -9 -5 -57 -2 -108 3 -81 8 -99 33 -142 l30 -50 3 145
c1 79 0 150 -2 157 -7 18 -55 16 -62 -2z"/>
<path d="M2931 727 c-7 -9 -12 -105 -13 -283 l-3 -269 -35 -3 c-19 -2 -38 -9
-42 -15 -4 -7 -8 -45 -8 -84 l0 -73 215 0 c206 0 215 1 215 19 0 15 -8 21 -32
23 -29 3 -33 7 -36 36 -3 30 -6 32 -43 32 l-39 0 0 315 0 315 -84 0 c-57 0
-87 -4 -95 -13z m59 -136 c0 -76 -4 -132 -10 -136 -6 -4 -10 42 -10 129 0 84
4 136 10 136 6 0 10 -50 10 -129z m48 -9 c-4 -159 -22 -163 -26 -5 -3 122 1
154 19 136 6 -6 8 -60 7 -131z m42 9 c0 -76 -4 -132 -10 -136 -6 -4 -10 42
-10 129 0 84 4 136 10 136 6 0 10 -50 10 -129z"/>
<path d="M3268 633 c-3 -4 1 -39 9 -78 14 -77 14 -73 9 -130 -2 -22 -1 -44 4
-50 4 -5 7 -92 6 -192 l-1 -183 36 0 c33 0 37 3 43 31 9 47 7 207 -3 213 -12
8 -20 120 -11 162 6 24 5 43 -3 55 -9 14 -9 21 1 31 14 14 17 138 3 138 -6 0
-13 -4 -16 -10 -9 -15 -36 -12 -56 6 -9 8 -19 12 -21 7z"/>
<path d="M3404 459 c-9 -15 -9 -246 0 -361 l8 -98 64 0 c57 0 64 2 64 20 0 13
-7 20 -20 20 -25 0 -34 21 -26 55 5 18 13 25 31 25 24 0 25 -3 25 -60 l0 -60
39 0 c45 0 51 10 51 76 0 31 4 44 14 44 9 0 16 -19 20 -60 l7 -60 49 0 50 0 0
57 c0 38 5 62 16 74 15 17 15 19 0 34 -12 12 -13 21 -6 35 14 25 13 27 -11 33
-13 4 -20 12 -17 24 3 15 13 18 68 18 l65 0 3 -65 c2 -36 0 -80 -3 -97 -5 -31
-9 -33 -45 -33 -40 0 -40 0 -40 -40 l0 -40 140 0 140 0 0 61 c0 35 4 58 9 54
6 -3 8 -30 7 -60 l-4 -55 194 0 194 0 0 83 c0 128 1 127 -84 127 l-72 0 4 -65
4 -65 -62 0 -63 0 5 69 5 69 -30 6 c-16 3 -72 6 -123 6 -93 0 -94 0 -94 24 0
14 5 28 10 31 6 3 10 32 10 64 0 31 5 62 11 68 7 7 9 19 6 27 -6 14 -32 16
-185 16 -98 0 -181 -3 -185 -6 -3 -3 1 -23 8 -44 7 -21 11 -48 8 -60 -3 -12 0
-39 7 -61 8 -24 10 -43 4 -48 -5 -5 -55 -12 -110 -16 l-102 -6 -6 38 c-4 21
-7 74 -9 118 -1 72 -8 94 -29 95 -4 0 -10 -5 -14 -11z"/>
</g>
</svg>
