<svg xmlns="http://www.w3.org/2000/svg" xmlns:xlink="http://www.w3.org/1999/xlink" viewBox="0 0 376 257"><defs><linearGradient id="linear-gradient" x1="207.8326" y1="134.91437" x2="237.57497" y2="134.91437" gradientUnits="userSpaceOnUse"><stop offset="0.0012" stop-color="#283a52"/><stop offset="1" stop-color="#354f6e"/></linearGradient><linearGradient id="linear-gradient-2" x1="218.33133" y1="139.60133" x2="255.83877" y2="139.60133" xlink:href="#linear-gradient"/></defs><title>Automated Delivery Rescheduling</title><g id="Layer_2" data-name="Layer 2"><g id="Layer_1-2" data-name="Layer 1"><rect width="376" height="257" fill="none"/><ellipse cx="111.8898" cy="211.64574" rx="44.91149" ry="20.11178" fill="#ebf4ff"/><path d="M187.062,64.72775c8.31214,36.30646-10.7569,89.7545-42.59189,119.37952s-64.38068,24.20865-72.69282-12.09781S82.53416,82.255,114.36916,52.62994,178.74984,28.42128,187.062,64.72775Z" fill="#c0d4ef"/><circle cx="112.84534" cy="171.85945" r="39.72422" transform="translate(-17.75055 13.06885) rotate(-6.14581)" fill="#c0d4ef"/><circle cx="157.06518" cy="75.19798" r="42.84644" transform="translate(-7.14792 17.24743) rotate(-6.14581)" fill="#c0d4ef"/><path d="M202.81192,71.65139c8.31214,36.30646-10.7569,89.7545-42.59189,119.37952S95.83935,215.23956,87.52721,178.9331,98.28411,89.1786,130.1191,59.55357,194.49978,35.34492,202.81192,71.65139Z" fill="#7e8de8"/><path d="M193.254,80.54578c6.93387,30.28635-8.97326,74.872-35.52957,99.58476S104.019,200.32506,97.0851,170.03871s8.97326-74.872,35.52957-99.58476S186.32015,50.25942,193.254,80.54578Z" fill="#fff"/><ellipse cx="136.58664" cy="44.27473" rx="11.50679" ry="5.15285" transform="translate(-3.955 14.8773) rotate(-6.14581)" fill="#ffd665"/><rect x="124.72881" y="37.73577" width="23.01358" height="6.55781" transform="translate(-3.608 14.82098) rotate(-6.14581)" fill="#ffd665"/><ellipse cx="135.88457" cy="37.75461" rx="11.50679" ry="5.15285" transform="translate(-3.261 14.76466) rotate(-6.14581)" fill="#eebc4a"/><ellipse cx="135.6017" cy="35.12765" rx="14.91573" ry="6.6794" transform="translate(-2.98138 14.71928) rotate(-6.14581)" fill="#ffd665"/><rect x="120.23094" y="26.65149" width="29.83145" height="8.50059" transform="translate(-2.53158 14.64627) rotate(-6.14581)" fill="#ffd665"/><ellipse cx="134.69164" cy="26.67592" rx="14.91573" ry="6.6794" transform="translate(-2.08178 14.57327) rotate(-6.14581)" fill="#eebc4a"/><path d="M138.48935,86.33838h0c-1.02338.894-2.01457.68749-2.21388-.46133l-.78977-4.55227a4.53776,4.53776,0,0,1,1.49211-3.69894h0c1.02338-.894,2.01457-.68749,2.21388.46133l.78977,4.55227A4.53776,4.53776,0,0,1,138.48935,86.33838Z" fill="#47576e"/><path d="M153.65781,173.77021h0c-1.02338.894-2.01457.68749-2.21388-.46133l-.78977-4.55227a4.53776,4.53776,0,0,1,1.49211-3.69894h0c1.02338-.894,2.01457-.68749,2.21388.46133l.78977,4.55227A4.53776,4.53776,0,0,1,153.65781,173.77021Z" fill="#47576e"/><path d="M180.37956,95.0676h0a4.53776,4.53776,0,0,1,1.49211-3.69894l4.05518-3.54266c1.02338-.894,2.01457-.68749,2.21388.46133h0a4.53776,4.53776,0,0,1-1.49211,3.69894l-4.05518,3.54266C181.57006,96.423,180.57887,96.21643,180.37956,95.0676Z" fill="#47576e"/><path d="M102.4949,163.10872h0a4.53776,4.53776,0,0,1,1.49211-3.69894l4.05518-3.54266c1.02338-.894,2.01457-.68749,2.21388.46133h0a4.53776,4.53776,0,0,1-1.49211,3.69894l-4.05518,3.54266C103.68539,164.46409,102.69421,164.25754,102.4949,163.10872Z" fill="#47576e"/><path d="M155.729,76.57045h0c-.99734.25089-1.5595-.70815-1.25562-2.14209l1.20414-5.682a4.09789,4.09789,0,0,1,2.35607-3.05064h0c.99734-.25089,1.5595.70815,1.25562,2.14209l-1.20414,5.682A4.09789,4.09789,0,0,1,155.729,76.57045Z" fill="#47576e"/><path d="M132.602,185.70034h0c-.99734.25089-1.5595-.70815-1.25562-2.14209l1.20414-5.682a4.09789,4.09789,0,0,1,2.35607-3.05064h0c.99734-.25089,1.5595.70815,1.25562,2.14209l-1.20414,5.682A4.09789,4.09789,0,0,1,132.602,185.70034Z" fill="#47576e"/><path d="M179.4874,117.10232h0a4.09789,4.09789,0,0,1,2.35607-3.05064l3.952-.99416c.99734-.25089,1.5595.70815,1.25562,2.14209h0a4.09789,4.09789,0,0,1-2.35607,3.05064l-3.952.99416C179.74567,119.49529,179.18352,118.53625,179.4874,117.10232Z" fill="#47576e"/><path d="M103.58455,136.19646h0a4.09789,4.09789,0,0,1,2.35607-3.05064l3.952-.99416c.99734-.25089,1.5595.70815,1.25562,2.14209h0a4.09789,4.09789,0,0,1-2.35607,3.05064l-3.952.99416C103.84282,138.58944,103.28066,137.63039,103.58455,136.19646Z" fill="#47576e"/><path d="M171.04269,78.59789h0c-.72336-.4787-.70107-1.98123.04979-3.356l2.97529-5.44752c.75086-1.37476,1.94594-2.10115,2.6693-1.62245h0c.72336.4787.70107,1.98123-.04979,3.356L173.712,76.97545C172.96114,78.3502,171.766,79.0766,171.04269,78.59789Z" fill="#47576e"/><path d="M113.89857,183.2241h0c-.72336-.4787-.70107-1.98123.04979-3.356l2.97529-5.44752c.75086-1.37476,1.94594-2.10115,2.6693-1.62245h0c.72336.4787.70107,1.98123-.04979,3.356l-2.97529,5.44752C115.817,182.97641,114.62193,183.7028,113.89857,183.2241Z" fill="#47576e"/><path d="M170.10058,142.09871h0c.75086-1.37476,1.94594-2.10115,2.6693-1.62245l2.86633,1.89687c.72336.4787.70107,1.98123-.04979,3.356h0c-.75086,1.37476-1.94594,2.10115-2.6693,1.62245l-2.86633-1.89687C169.32743,144.976,169.34972,143.47347,170.10058,142.09871Z" fill="#47576e"/><path d="M115.04922,105.66692h0c.75086-1.37476,1.94594-2.10115,2.6693-1.62245l2.86633,1.89687c.72336.4787.70107,1.98123-.04979,3.356h0c-.75086,1.37476-1.94594,2.10115-2.6693,1.62245l-2.86633-1.89687C114.27607,108.5442,114.29836,107.04168,115.04922,105.66692Z" fill="#47576e"/><path d="M144.11067,122.08551l22.55121-36.97015c.65162-1.06826,1.48946-.47842.918.64627l-20.13076,39.61917Z" fill="#ffd665"/><path d="M149.74,120.5364c.49669,2.863-1.16811,6.99-3.71845,9.218s-5.02043,1.71328-5.51712-1.14968,1.16811-6.99,3.71845-9.218S149.2433,117.67345,149.74,120.5364Z" fill="#ff6c62"/><ellipse cx="170.85723" cy="217.04417" rx="44.91149" ry="20.11178" fill="#ebf4ff"/><ellipse cx="264.1102" cy="160.73036" rx="44.91149" ry="20.11178" fill="#ebf4ff"/><polygon points="206.491 228.715 302.427 170.506 236.645 144.505 135.41 204.18 206.491 228.715" fill="#ebf4ff"/><polygon points="254.323 162.569 262.129 167.374 261.908 160.73 254.323 162.569" fill="#2b3650"/><path d="M282.74528,130.45076c1.13108,9.55718-5.24634,22.76063-14.24435,29.49074-6.12463,4.58095-11.88474,4.982-15.29569,1.75713a10.981,10.981,0,0,1-3.04465-6.876c-1.13108-9.55718,5.24634-22.76063,14.24435-29.49074S281.61421,120.89358,282.74528,130.45076Z" fill="#2b3650"/><path d="M290.08108,134.98362c1.13108,9.55718-5.24634,22.76063-14.24435,29.49074s-17.20927,4.43833-18.34034-5.11885,5.24634-22.76063,14.24435-29.49074S288.95,125.42645,290.08108,134.98362Z" fill="#47576e"/><path d="M284.7542,138.96789c.76126,6.4324-3.531,15.31891-9.58708,19.84857s-11.5826,2.98719-12.34386-3.44521,3.531-15.31891,9.58708-19.84857S283.99294,132.53549,284.7542,138.96789Z" fill="#67778c"/><path d="M280.07145,142.47039c.43617,3.68547-2.02311,8.777-5.493,11.37232s-6.6363,1.71152-7.07247-1.97395,2.02311-8.777,5.493-11.37232S279.63528,138.78491,280.07145,142.47039Z" fill="#96a5b8"/><path d="M196.3087,114.96522l-2.06141-1.08476c-1.11085-.58525-1.12576-1.86384-1.00275-6.21032a27.1779,27.1779,0,0,0-.11556-5.15539c-.58152-.52933-5.092-2.03532-8.88308-3.02688a1.33883,1.33883,0,0,1-.95429-1.63273,1.32516,1.32516,0,0,1,1.63273-.95429c4.25329,1.11458,9.528,2.751,10.486,4.2272.60389.93565.6188,2.73612.507,6.61664-.03728,1.30842-.09319,3.19463,0,3.99608l1.63645.8611Z" fill="#aac5ef"/><path d="M233.13656,137.79854s-54.91335,16.44875-47.75619,31.28633,12.51229,27.00474,25.58047,24.34069,30.75486-16.429,34.3806-21.59076,16.5941-16.94489,16.5941-16.94489l23.70032-21.05959Z" fill="#48648c"/><path d="M267.02514,100.9959s11.6105-2.48861,20.99433,12.26309,4.77144,14.7517,4.77144,14.7517-30.06006,24.75183-38.80769,29.55309-9.10549,6.27245-14.31431,7.50507-15.06745-3.34-16.28136-4.77144-9.00726-8.90668-9.8025-13.83717-2.06762-17.93347,2.06762-20.02057S267.02514,100.9959,267.02514,100.9959Z" fill="#c0d4ef"/><path d="M230.90451,129.77162c-6.291-6.78918-4.38736-17.76289,3.281-22.9461,7.82967-5.29223,17.2228-11.25521,20.13372-11.49894,0,0,7.755-1.6553,11.06558,2.15189s7.11779,8.111,2.814,13.40793-13.9276,14.8977-19.13026,17.38065-12.81514,4.13825-16.45775,2.814A4.84938,4.84938,0,0,1,230.90451,129.77162Z" fill="#47576e"/><path d="M226.60066,110.83352S208.47037,116.55924,207.933,123.12s1.25192,34.8315,1.3712,35.42793,8.23073.59643,8.94645,0,.95429-21.11361,2.38572-23.14147S231.73,123.00068,231.73,123.00068l5.845-7.515Z" fill="url(#linear-gradient)"/><path d="M235.85542,125.15849c-4.53349-4.89249-3.16167-12.80048,2.3644-16.53566,5.6423-3.81374,12.41127-8.11085,14.509-8.28648,0,0,5.58847-1.19286,7.97419,1.55072s5.1293,5.845,2.02786,9.66216-10.03665,10.73573-13.78584,12.525-9.235,2.98215-11.86,2.02786A3.49461,3.49461,0,0,1,235.85542,125.15849Z" fill="#2b3650"/><path d="M210.96075,177.75293a10.79244,10.79244,0,0,0,.24419,2.18784c.17963.26945,3.09863,2.82918,8.03847,1.66158s12.03525-5.52364,13.87646-6.73615,2.544-1.73284,2.544-1.73284l-.42841-2.35867Z" fill="#0e1531"/><path d="M222.35255,167.37505s-8.4693,5.24858-9.90073,7.515-1.67,2.62429-1.49107,2.86286a8.23409,8.23409,0,0,0,6.56073,1.84893,42.64324,42.64324,0,0,0,10.67609-4.11536,58.97949,58.97949,0,0,0,7.03787-4.71179s-.05964-4.23465,0-4.53287-.77536.05964-.77536.05964Z" fill="#ffd665"/><path d="M194.21542,168.53875a10.79244,10.79244,0,0,0,.24419,2.18784c.17963.26945,3.09863,2.82918,8.03847,1.66158s12.03525-5.52364,13.87646-6.73615,2.544-1.73284,2.544-1.73284l-.42841-2.35867Z" fill="#0e1531"/><path d="M205.60723,158.16087s-8.4693,5.24858-9.90073,7.515-1.67,2.62429-1.49107,2.86286a8.23409,8.23409,0,0,0,6.56073,1.84893,42.64324,42.64324,0,0,0,10.67609-4.11537,58.97949,58.97949,0,0,0,7.03787-4.71179s-.05964-4.23465,0-4.53287-.77536.05964-.77536.05964Z" fill="#ffd665"/><path d="M255.09654,110.1178s1.67,3.57858,0,5.48715-13.47931,10.855-18.01218,14.4336-5.9643,3.10143-5.01,11.33216,2.98215,23.97647,2.38572,24.93076-3.69786,3.10143-6.32216,2.74358-6.32215-.71572-6.44144-1.67-3.69786-34.23507-3.34-36.02435,11.80931-16.1036,13.36-17.41575S255.09654,110.1178,255.09654,110.1178Z" fill="url(#linear-gradient-2)"/><path d="M223.19527,54.10954a5.78668,5.78668,0,0,0-4.89844,4.38613c-1.19286,4.14633-3.16108,18.57992-3.34,18.8185s5.30822,2.44536,7.09751,2.62429S223.19527,54.10954,223.19527,54.10954Z" fill="#6172da"/><polygon points="237.66 95.853 264.122 111.212 264.122 65.275 237.66 49.917 237.66 95.853" fill="#fdb3ae"/><polygon points="290.584 95.853 264.122 111.212 264.122 65.275 290.584 49.917 290.584 95.853" fill="#fec6c3"/><polygon points="264.111 65.275 237.647 49.917 264.151 34.601 290.573 49.917 264.111 65.275" fill="#fed9d7"/><path d="M216.52742,77.11536a9.15176,9.15176,0,0,1-2.27242,4.93049c-2.02187,2.14715-17.0519,11.2924-18.40381,11.69s-4.45334.75548-6.4812,2.30619a5.83987,5.83987,0,0,0-1.90858,6.44144c.71572,2.26643.59643,3.69786,2.26643,2.98215s3.34-4.04877,4.29429-4.46975,1.78929-.421,2.02786.53331a10.02025,10.02025,0,0,0,.835,2.02786,19.91569,19.91569,0,0,0,2.86286-3.69786c.47714-1.19286,6.32215-2.505,12.04788-5.60644s9.185-4.86259,10.37788-7.79916,0-8.30444,0-8.30444Z" fill="#fdb3ae"/><path d="M244.28129,57.23437s9.06573-.159,10.17907,13.99622,3.02191,34.67245,3.02191,37.05817a7.43331,7.43331,0,0,1-2.06762,5.56668c-1.27238,1.11334-10.81526,6.521-16.85908,5.24858s-13.04193-4.93049-13.99622-6.36192S219.62886,73.9344,219.947,71.23058s-1.11334-12.08764,1.90858-16.22289c.85987-1.17667,3.04613-1.50342,5.73432-1.36866C234.34895,53.97786,244.28129,57.23437,244.28129,57.23437Z" fill="#7e8de8"/><path d="M227.58125,51.98578s.07952,8.35.3181,10.25859,1.90858,4.05572,3.41953,4.21477,4.78279-.39762,7.36164-4.29429,4.16933-4.93049,4.885-4.93049h.71572a10.85626,10.85626,0,0,1-3.57858-2.86286,14.08766,14.08766,0,0,1-2.38572-6.12335c-.39762-2.78334.36353-2.54477.36353-2.54477Z" fill="#fd8e87"/><path d="M192.458,119.77185s1.35191-4.40094,2.826-8.1675c1.48514-3.79482,1.50057-6.46909,4.54354-6.59588s5.59522.54183,6.86312,1.68294,2.53581,1.903,1.52149,4.69184c0,0-5.86385,12.89421-5.60146,14.81647S192.458,119.77185,192.458,119.77185Z" fill="#fff"/><path d="M206.69031,106.69139c-1.26741-1.14114-3.81958-1.80966-6.86277-1.68292a8.09813,8.09813,0,0,0-.84059.16,7.19452,7.19452,0,0,1,4.15973,1.52295c1.26788,1.14114,2.53576,1.903,1.52136,4.69176,0,0-4.23372,9.31549-5.338,13.28384,1.91463,1.3641,3.37309,2.20959,3.28036,1.53278-.26187-1.92232,5.60178-14.81662,5.60178-14.81662C209.22653,108.59437,207.95865,107.83253,206.69031,106.69139Z" fill="#aac5ef"/><ellipse cx="203.19374" cy="107.99253" rx="2.505" ry="4.95037" transform="translate(36.90737 267.04889) rotate(-71.7165)" fill="#2b3650"/><path d="M216.74611,40.39517s.77536,7.57466,3.99608,12.3461,5.66608,5.9643,7.45537,5.72573,7.15716-3.34,8.11144-5.5468a22.0851,22.0851,0,0,0,1.78929-6.56073c.17893-2.02786-2.62429-9.1676-6.85894-10.51828S216.74611,40.39517,216.74611,40.39517Z" fill="#fdb3ae"/><path d="M229.967,40.69338s-.06455-.60625,1.4464.348,3.325,5.69579,3.325,5.69579.63619,2.94239,2.62429,1.59048,5.24858-7.6343,5.56668-13.201-5.6462-12.72383-17.17718-12.08764-11.76955,16.30241-11.76955,16.30241l.93464,1.69994,7.39479,1.97594,6.15-1.25741Z" fill="#1d1535"/><polygon points="155.35 218.883 163.156 223.687 162.935 217.044 155.35 218.883" fill="#2b3650"/><path d="M183.772,186.76456c1.13108,9.55718-5.24634,22.76063-14.24435,29.49074-6.12463,4.58095-11.88474,4.982-15.29569,1.75713a10.981,10.981,0,0,1-3.04465-6.876c-1.13108-9.55718,5.24634-22.76063,14.24435-29.49074S182.64091,177.20739,183.772,186.76456Z" fill="#2b3650"/><path d="M191.10779,191.29743c1.13108,9.55718-5.24634,22.76063-14.24435,29.49074s-17.20927,4.43833-18.34034-5.11885,5.24634-22.76063,14.24435-29.49074S189.97671,181.74026,191.10779,191.29743Z" fill="#47576e"/><path d="M185.78091,195.2817c.76126,6.4324-3.531,15.31891-9.58708,19.84857s-11.5826,2.98719-12.34386-3.44521,3.531-15.31891,9.58708-19.84857S185.01964,188.8493,185.78091,195.2817Z" fill="#67778c"/><path d="M181.09815,198.78419c.43617,3.68547-2.02311,8.777-5.493,11.37232s-6.6363,1.71152-7.07247-1.97395,2.02311-8.777,5.493-11.37232S180.662,195.09872,181.09815,198.78419Z" fill="#96a5b8"/><path d="M213.98266,39.34147s-2.86286,1.67-.87476,2.86286,7.726,2.18925,9.95266,1.95068,6.27023-2.74592,6.90642-3.46163-5.82513,1.47119-9.58264.82506A21.19813,21.19813,0,0,1,213.98266,39.34147Z" fill="#382c6d"/><path d="M266.29385,149.00947s.59859,2.06958,5.13145,1.831,21.82933-11.69,23.38-13.47931.11929-4.70474-1.55072-5.81166-2.64379-1.75422-2.64379-1.75422Z" fill="#9cb4d8"/><path d="M261.93545,154.88987s-24.73963,28.99242-32.73738,35.39449c-8.295,6.63994-16.63992,8.36974-28.25726,2.61792-10.92072-5.407-21.94871-14.43247-27.19729-26.779-5.24858-12.34679-2.14715-29.31522,0-32.64032,2.8158-4.36069,6.30771-15.68866,14.55289-16.56584,7.82628-.83244,15.20383,7.75964,17.97257,14.75162,2.51572,6.35337,1.69,12.71816.03961,25.44775-.9692,7.47541-1.82517,8.96-1.67,14.31431.11,3.79641.45152,15.58126,6.5994,18.203,2.286.97479,4.66427.38,7.27737-.54867,11.04-3.92316,18.34534-10.98665,23.16151-15.56682C246.11888,169.29411,252.962,162.88459,261.93545,154.88987Z" fill="#fafcff"/><path d="M177.20282,160.81433s.23857,1.31215-2.38572,3.10143-12.40574,6.44144-15.865,10.855-3.81715,8.23073-2.505,9.66216,9.42359,2.74358,13.24074,1.90858,9.42359-2.38572,14.67217-1.55072a23.8208,23.8208,0,0,1,9.42359,3.45929c.59643.47714,1.31215.95429,1.31215.95429l-5.72321-20.17675a9.0762,9.0762,0,0,0-5.89-6.14308Z" fill="#c0d4ef"/><path d="M206.26908,131.66875c2.51572,6.35337,1.69,12.71816.03961,25.44775-.9692,7.47541-1.82517,8.96-1.67,14.31431.11,3.79641.45152,15.58126,6.5994,18.203.137.05825.27771.062.41517.10927-4.4243-3.925-4.736-13.62539-4.83434-17.012-.1547-5.35435.7008-6.83891,1.67-14.31431,1.65043-12.72958,2.47612-19.09437-.03914-25.44775-1.98313-5.00768-6.33474-10.81774-11.51762-13.41664A28.33857,28.33857,0,0,1,206.26908,131.66875Z" fill="#c0d4ef"/><path d="M241.677,173.51831c-4.81617,4.58016-12.1215,11.64366-23.16151,15.56682-2.61311.92866-4.99137,1.52346-7.27737.54867-2.26271-.96477-3.72908-3.17948-4.69688-5.77162a52.9896,52.9896,0,0,0,4.41964,9.56338,13.49738,13.49738,0,0,0,2.54368,2.90433c5.708.10624,10.7171-2.06211,15.69356-6.04561,7.99775-6.40207,32.73747-35.39438,32.73747-35.39438C252.96207,162.88462,246.119,169.29414,241.677,173.51831Z" fill="#c0d4ef"/><path d="M206.257,182.96916l-.02563.01747s.076.2176.18312.51978C206.353,183.33214,206.31381,183.14623,206.257,182.96916Z" fill="#aac5ef"/><path d="M207.42839,121.47a2.11354,2.11354,0,0,1-.36531-.03355,17.302,17.302,0,0,1-4.19365-2.1807,1.52561,1.52561,0,1,1,1.61782-2.587c.76045.47342,1.66255,1.00275,2.3298,1.36433.21993-.46969.47714-1.05866.68589-1.54326,1.47989-3.41083,2.32608-5.18894,3.97-5.18894,1.30469,0,8.309,2.833,13.95273,5.20758a1.52865,1.52865,0,1,1-1.1854,2.81813c-4.96528-2.09123-10.55681-4.31293-12.38337-4.85717a29.76733,29.76733,0,0,0-1.55072,3.23563C209.2475,120.143,208.66971,121.47,207.42839,121.47Z" fill="#93aacc"/><path d="M243.08843,85.46537s.51691,6.40168,0,7.23668-18.64837,14.195-22.22695,16.1036-6.20287,4.05572-6.56073,5.845,1.43143,3.22072,3.69786,3.10143,6.20287-2.02786,7.15716-3.34.91453-1.67,2.42548-2.14715,15.34812-7.70687,19.28456-10.65274,6.08358-6.0473,5.845-7.7173.018-9.66216.018-9.66216Z" fill="#fdb3ae"/><path d="M253.66511,67.17486c-.55667-1.9881-1.67-4.93049-4.93049-3.9762s-5.32811,2.38572-6.20287,11.69-.55667,11.21288-.55667,11.21288a18.94562,18.94562,0,0,0,6.91858.352,15.95719,15.95719,0,0,0,7.07763-2.26062Z" fill="#6172da"/><path d="M177.20282,160.81433s4.00924-18.73263,7.53412-26.984a145.91962,145.91962,0,0,1,8.43161-16.27679s5.35558,2.3767,6.74666,4.52329.86721.9082.86721.9082-7.62511,19.33171-8.32442,22.75-3.59607,21.49265-3.0855,23.29263-10.69757-5.31994-10.69757-5.31994Z" fill="#c0d4ef"/></g></g></svg>